<?xml version="1.0" encoding="utf-8"?>
<!-- Generator: Adobe Illustrator 27.0.0, SVG Export Plug-In . SVG Version: 6.00 Build 0)  -->
<svg version="1.1" id="Ebene_1" xmlns="http://www.w3.org/2000/svg" xmlns:xlink="http://www.w3.org/1999/xlink" x="0px" y="0px"
	 viewBox="0 0 245 57.6" style="enable-background:new 0 0 245 57.6;" xml:space="preserve">
<style type="text/css">
	.st0{opacity:0.7;fill:#B2B2B2;}
	.st1{fill:#7B6A58;}
	.st2{fill:#A48A7B;}
	.st3{fill:#634E42;}
	.st4{fill:#CA9E67;}
	.st5{fill:#936037;}
	.st6{fill:#7D4E24;}
	.st7{fill:#432918;}
	.st8{fill:#CBBBA0;}
	.st9{fill:#F7A70A;}
	.st10{fill:#B0DEF1;}
	.st11{fill:#D694B7;}
	.st12{fill:#E86E37;}
	.st13{fill:#76AAC1;}
	.st14{opacity:0.8;fill:#1D78BD;}
	.st15{opacity:0.8;fill:#ABD5F3;}
	.st16{opacity:0.7;fill:#79C6C0;}
	.st17{opacity:0.7;fill:#FBBA00;}
	.st18{opacity:0.7;fill:#B81A5D;}
	.st19{fill:#E7CDCF;}
	.st20{fill:#90C369;}
	.st21{fill:#29BDEF;}
	.st22{fill:#FBBA00;}
	.st23{fill:#79C6C0;}
	.st24{fill:#ABD5F3;}
	.st25{fill:#1D78BD;}
	.st26{fill:#FAB752;}
	.st27{fill:#B81A5D;}
	.st28{opacity:0.8;fill:#FAB752;}
	.st29{opacity:0.7;fill:#1D78BD;}
	.st30{opacity:0.7;fill:#FAB752;}
	.st31{fill:#3196D3;}
	.st32{fill:#FCD093;}
	.st33{fill:#7ABB51;}
	.st34{fill:#99C664;}
	.st35{fill:#6174B7;}
	.st36{fill:#505EA8;}
	.st37{fill:none;stroke:#BA5252;stroke-miterlimit:10;}
	.st38{fill:#738EC8;}
	.st39{fill:#A7CC70;}
	.st40{fill:#A5C690;}
	.st41{fill:#9096B8;}
	.st42{fill:#C0C6E6;}
	.st43{fill:#303A2A;}
</style>
<g>
	<path class="st36" d="M117,28.8c0-6.3,4.8-11.7,12.5-11.7c2.9,0,5.1,0.8,7,2.1c0.8,0.6,0.9,1.4,0.3,2.2l-0.8,1
		c-0.6,0.8-1.3,0.8-2.2,0.3c-1.3-0.7-2.9-1.1-4.3-1.1c-4.5,0-7.3,3.2-7.3,7.2s2.8,7.2,7.3,7.2c1.4,0,3-0.4,4.3-1.1
		c0.9-0.5,1.6-0.5,2.2,0.3l0.8,1c0.6,0.8,0.6,1.6-0.2,2.1c-1.9,1.4-4.1,2.2-7.1,2.2C121.8,40.6,117,35.2,117,28.8z"/>
	<path class="st36" d="M139,31.9c0-4.9,3.3-8.7,8-8.7c2.2,0,4.2,0.8,5.4,2.7v-0.8c0-1,0.6-1.6,1.6-1.6h1.9c1,0,1.6,0.6,1.6,1.6v13.6
		c0,1-0.6,1.6-1.6,1.6h-1.9c-1,0-1.6-0.6-1.6-1.6v-0.8c-1.2,1.9-3.2,2.7-5.4,2.7C142.3,40.6,139,36.8,139,31.9z M152.4,31.9
		c0-2.7-1.7-4.7-4.3-4.7c-2.6,0-4.2,2.1-4.2,4.7c0,2.6,1.5,4.7,4.2,4.7C150.7,36.5,152.4,34.5,152.4,31.9z"/>
	<path class="st36" d="M161.4,38.7V25.1c0-1,0.6-1.6,1.6-1.6h1.9c1,0,1.6,0.6,1.6,1.6v1.1c0.6-1.9,2.4-3,4.5-3
		c1.9,0,3.8,0.8,4.8,2.9c1.6-2.5,3.5-2.9,5.4-2.9c4.3,0,6.1,3.5,6.1,7.5v8c0,1-0.6,1.6-1.6,1.6h-1.9c-1,0-1.6-0.6-1.6-1.6v-7.8
		c0-2.3-0.9-3.6-2.4-3.6c-1.4,0-2.9,1.1-3,4.2v7.2c0,1-0.6,1.6-1.6,1.6h-1.9c-1,0-1.6-0.6-1.6-1.6v-7.8c0-2.3-0.9-3.6-2.4-3.6
		c-1.5,0-3,1.2-3,4.4v7c0,1-0.6,1.6-1.6,1.6H163C162,40.2,161.4,39.7,161.4,38.7z"/>
	<path class="st36" d="M191.1,45.9V25.1c0-1,0.6-1.6,1.6-1.6h1.9c1,0,1.6,0.6,1.6,1.6v0.8c1.2-1.9,3.2-2.7,5.4-2.7
		c4.7,0,8,3.8,8,8.7c0,4.9-3.3,8.7-8,8.7c-2.2,0-4.2-0.8-5.4-2.7v8.1c0,1-0.6,1.6-1.6,1.6h-1.9C191.7,47.5,191.1,46.9,191.1,45.9z
		 M204.5,31.9c0-2.6-1.5-4.7-4.2-4.7c-2.6,0-4.3,2-4.3,4.7c0,2.7,1.7,4.7,4.3,4.7C203,36.5,204.5,34.5,204.5,31.9z"/>
	<path class="st36" d="M212.3,33.1v-8.1c0-1,0.6-1.6,1.6-1.6h1.9c1,0,1.6,0.6,1.6,1.6v7.7c0,2.3,0.9,3.7,2.6,3.7
		c1.7,0,3.5-1.4,3.5-4.5v-7c0-1,0.6-1.6,1.6-1.6h1.9c1,0,1.6,0.6,1.6,1.6v13.6c0,1-0.6,1.6-1.6,1.6h-1.9c-1,0-1.6-0.6-1.6-1.6v-1.1
		c-0.8,1.9-2.6,3-5.1,3C213.9,40.6,212.3,37.1,212.3,33.1z"/>
	<path class="st36" d="M231.8,37.2c-0.5-1,0-1.7,1-1.9l1-0.2c0.9-0.2,1.3,0.2,1.9,0.9c0.6,0.6,1.5,1,2.5,1c1.3,0,2.1-0.6,2.1-1.5
		c0-0.7-0.5-1.1-1.6-1.5l-2-0.7c-1.7-0.6-4.7-1.8-4.7-4.8c0-3.1,2.6-5.3,6.2-5.3c2.1,0,4.1,0.7,5.3,2.5c0.6,0.9,0.2,1.8-0.9,2
		l-0.9,0.2c-0.8,0.2-1.3-0.1-1.9-0.6c-0.5-0.5-1-0.6-1.6-0.6c-1,0-1.7,0.6-1.7,1.4c0,0.7,0.6,1.1,1.5,1.4l2.1,0.8
		c3.4,1.1,4.7,3,4.7,5c0,3.5-3.1,5.2-6.7,5.2C235.3,40.6,232.9,39.5,231.8,37.2z"/>
</g>
<g>
	<path class="st33" d="M0.1,29.2c0-6.6,3.3-12.1,10.5-12.1c2.2,0,4.4,0.6,6.2,1.8c0.8,0.6,0.8,1.5,0.2,2.2l-0.6,0.6
		c-0.7,0.7-1.3,0.7-2.2,0.3c-0.8-0.5-2-0.8-3.2-0.8C7.3,21.2,5,23.7,5,28c1.4-1.9,3.8-2.9,5.9-2.9c4.3,0,8,2.9,8,7.5
		c0,4.5-3.5,7.9-8.9,7.9C3.7,40.6,0.1,36,0.1,29.2z M13.9,32.7c0-2.3-1.9-3.8-4.2-3.8c-2.5,0-4.3,1.7-4.3,3.8c0,2.1,1.8,3.8,4.3,3.8
		C12,36.5,13.9,34.9,13.9,32.7z"/>
	<path class="st33" d="M21.2,28.9c0-6.4,5.1-11.8,12.2-11.8c2.7,0,4.9,0.6,6.9,1.8c0.9,0.6,1,1.4,0.4,2.2l-0.8,1
		c-0.6,0.8-1.3,0.9-2.2,0.5c-1.7-0.9-3-0.9-4.3-0.9c-4.1,0-7.1,3.2-7.1,7.2c0,3.8,2.6,7.2,7.3,7.2c1.3,0,2.8-0.3,4-0.9v-3.5h-3.9
		c-1,0-1.6-0.6-1.6-1.6v-0.7c0-1,0.6-1.6,1.6-1.6h7.2c1,0,1.6,0.6,1.6,1.6V36c0,0.8-0.3,1.4-1,2c-2.4,1.8-5.2,2.6-7.9,2.6
		C26.3,40.6,21.2,35.2,21.2,28.9z"/>
</g>
<g>
	<path class="st36" d="M79.8,0.1c-3.2,0-5.8,2.6-5.8,5.8c0,0.7-0.1,1.4-0.4,2c-0.6,1.6-1.8,2.8-3.4,3.4c2,0.6,3.5,2.2,4.1,4.1
		c0.6-1.6,1.8-2.8,3.4-3.4c0.6-0.2,1.3-0.4,2-0.4c3.2,0,5.8-2.6,5.8-5.8S83,0.1,79.8,0.1z"/>
	<path class="st38" d="M68.2,11.6c-3.2,0-5.7,2.6-5.7,5.8c0,0.7-0.1,1.4-0.4,2c-0.6,1.6-1.8,2.8-3.4,3.4c2,0.6,3.5,2.2,4.1,4.1
		c0.6-1.6,1.8-2.8,3.4-3.4c0.6-0.2,1.3-0.4,2-0.4c3.2,0,5.7-2.6,5.7-5.8S71.4,11.6,68.2,11.6z"/>
	<path class="st38" d="M62.5,28.9c0-3.2-2.6-5.8-5.8-5.8c-3.2,0-5.8,2.6-5.8,5.8s2.6,5.8,5.8,5.8C59.9,34.7,62.5,32.1,62.5,28.9z"/>
	<path class="st35" d="M74,40.5c0-3.2-2.6-5.8-5.8-5.8c-0.7,0-1.4-0.1-2-0.4c-1.6-0.6-2.8-1.8-3.4-3.4c-0.6,2-2.2,3.5-4.1,4.1
		c1.6,0.6,2.8,1.8,3.4,3.4c0.2,0.6,0.4,1.3,0.4,2c0,3.2,2.6,5.8,5.8,5.8C71.5,46.2,74,43.6,74,40.5z"/>
	<path class="st39" d="M85.5,28.7c0-3.2-2.6-5.8-5.8-5.8c-3.2,0-5.8,2.6-5.8,5.8c0,3.2,2.6,5.8,5.8,5.8
		C82.9,34.5,85.5,31.9,85.5,28.7z"/>
	<path class="st33" d="M97.4,19.2c-0.2-0.6-0.4-1.3-0.4-2c0-2-1-3.7-2.5-4.7c-0.1-0.1-0.2-0.2-0.4-0.2c-0.1,0-0.1-0.1-0.2-0.1
		c-0.8-0.4-1.8-0.7-2.7-0.7c-3.2,0-5.8,2.6-5.8,5.8c0,0.7-0.1,1.4-0.4,2c-0.6,1.6-1.8,2.8-3.4,3.4c2,0.6,3.5,2.2,4.1,4.1
		c0.6-1.6,1.8-2.8,3.4-3.4c0.6-0.2,1.3-0.4,2-0.4l0,0h0c0.7,0,1.4,0.1,2,0.4c1.6,0.6,2.8,1.8,3.4,3.4c0.6-2,2.2-3.5,4.1-4.1
		C99.2,22,98,20.8,97.4,19.2z"/>
	<path class="st33" d="M85.1,42.3c-0.6,1.6-1.8,2.8-3.4,3.4c-0.6,0.2-1.3,0.4-2,0.4h0c-3.2,0-5.8,2.6-5.8,5.8c0,3.2,2.6,5.8,5.8,5.8
		c3.2,0,5.8-2.6,5.8-5.8c0,0,0,0,0,0c0-0.7,0.1-1.4,0.4-2c0.6-1.6,1.8-2.8,3.4-3.4C87.3,45.8,85.8,44.2,85.1,42.3z"/>
	<path class="st39" d="M91.2,46c3.2,0,5.8-2.6,5.8-5.8c0-0.7,0.1-1.4,0.4-2c0.6-1.6,1.8-2.8,3.4-3.4c-2-0.6-3.5-2.2-4.1-4.1
		c-0.6,1.6-1.8,2.8-3.4,3.4c-0.6,0.2-1.3,0.4-2,0.4c-3.2,0-5.8,2.6-5.8,5.8S88.1,46,91.2,46z"/>
	<path class="st39" d="M102.8,23c-3.2,0-5.8,2.6-5.8,5.8c0,3.2,2.6,5.8,5.8,5.8s5.8-2.6,5.8-5.8C108.5,25.6,106,23,102.8,23z"/>
</g>
</svg>
